<svg width="260" height="37" viewBox="0 0 260 37" fill="none" xmlns="http://www.w3.org/2000/svg">
<path d="M57.34 7.58V29H60.19V19.85H67.15C67.85 19.85 68.41 19.96 68.83 20.18C69.25 20.38 69.59 20.66 69.85 21.02C70.11 21.36 70.3 21.77 70.42 22.25C70.54 22.71 70.64 23.2 70.72 23.72C70.82 24.24 70.88 24.77 70.9 25.31C70.92 25.85 70.94 26.36 70.96 26.84C70.98 27.3 71.02 27.72 71.08 28.1C71.16 28.48 71.3 28.78 71.5 29H74.68C74.38 28.64 74.15 28.23 73.99 27.77C73.85 27.29 73.74 26.79 73.66 26.27C73.58 25.75 73.53 25.22 73.51 24.68C73.49 24.14 73.46 23.61 73.42 23.09C73.36 22.57 73.27 22.07 73.15 21.59C73.05 21.11 72.88 20.68 72.64 20.3C72.42 19.9 72.11 19.56 71.71 19.28C71.33 19 70.83 18.8 70.21 18.68V18.62C71.51 18.26 72.45 17.59 73.03 16.61C73.63 15.63 73.93 14.49 73.93 13.19C73.93 11.45 73.35 10.08 72.19 9.08C71.05 8.08 69.46 7.58 67.42 7.58H57.34ZM66.13 17.45H60.19V9.98H67.27C68.61 9.98 69.58 10.32 70.18 11C70.78 11.68 71.08 12.56 71.08 13.64C71.08 14.42 70.94 15.06 70.66 15.56C70.4 16.04 70.04 16.43 69.58 16.73C69.14 17.01 68.62 17.2 68.02 17.3C67.42 17.4 66.79 17.45 66.13 17.45ZM81.5671 20.15L85.1971 10.16H85.2571L88.8271 20.15H81.5671ZM83.6971 7.58L75.3571 29H78.2671L80.6671 22.55H89.7271L92.0671 29H95.2171L86.8471 7.58H83.6971ZM100.18 26.6V9.98H104.98C106.3 9.98 107.41 10.17 108.31 10.55C109.21 10.91 109.94 11.45 110.5 12.17C111.08 12.87 111.49 13.73 111.73 14.75C111.99 15.75 112.12 16.89 112.12 18.17C112.12 19.49 111.98 20.62 111.7 21.56C111.44 22.48 111.1 23.25 110.68 23.87C110.26 24.49 109.78 24.98 109.24 25.34C108.72 25.7 108.19 25.98 107.65 26.18C107.11 26.36 106.6 26.48 106.12 26.54C105.64 26.58 105.24 26.6 104.92 26.6H100.18ZM97.3302 7.58V29H104.68C106.46 29 108 28.75 109.3 28.25C110.6 27.75 111.67 27.03 112.51 26.09C113.35 25.13 113.97 23.96 114.37 22.58C114.77 21.18 114.97 19.58 114.97 17.78C114.97 14.34 114.08 11.78 112.3 10.1C110.52 8.42 107.98 7.58 104.68 7.58H97.3302ZM118.453 7.58V29H133.333V26.6H121.303V19.19H132.433V16.79H121.303V9.98H133.243V7.58H118.453ZM136.793 7.58V29H139.643V21.5L143.213 18.17L150.953 29H154.553L145.163 16.22L154.193 7.58H150.503L139.643 18.26V7.58H136.793ZM180.213 14.03H183.063C182.903 12.89 182.563 11.89 182.043 11.03C181.523 10.15 180.873 9.42 180.093 8.84C179.313 8.26 178.423 7.82 177.423 7.52C176.423 7.22 175.363 7.07 174.243 7.07C172.603 7.07 171.143 7.37 169.863 7.97C168.603 8.55 167.543 9.35 166.683 10.37C165.843 11.39 165.203 12.59 164.763 13.97C164.323 15.33 164.103 16.79 164.103 18.35C164.103 19.91 164.303 21.37 164.703 22.73C165.123 24.09 165.743 25.27 166.562 26.27C167.383 27.27 168.413 28.06 169.653 28.64C170.893 29.2 172.343 29.48 174.003 29.48C176.743 29.48 178.903 28.73 180.483 27.23C182.063 25.73 182.993 23.63 183.273 20.93H180.423C180.363 21.81 180.183 22.63 179.883 23.39C179.583 24.15 179.163 24.81 178.623 25.37C178.103 25.91 177.473 26.34 176.733 26.66C176.013 26.96 175.183 27.11 174.243 27.11C172.963 27.11 171.863 26.87 170.943 26.39C170.023 25.91 169.263 25.27 168.663 24.47C168.083 23.65 167.653 22.7 167.373 21.62C167.093 20.52 166.953 19.36 166.953 18.14C166.953 17.02 167.093 15.94 167.373 14.9C167.653 13.86 168.083 12.94 168.663 12.14C169.263 11.32 170.013 10.67 170.913 10.19C171.833 9.71 172.933 9.47 174.213 9.47C175.713 9.47 177.003 9.85 178.083 10.61C179.183 11.37 179.893 12.51 180.213 14.03ZM190.493 20.15L194.123 10.16H194.183L197.753 20.15H190.493ZM192.623 7.58L184.283 29H187.193L189.593 22.55H198.653L200.993 29H204.143L195.773 7.58H192.623ZM209.106 16.79V9.98H214.806C215.426 9.98 216.006 10.02 216.546 10.1C217.106 10.16 217.596 10.31 218.016 10.55C218.436 10.79 218.766 11.13 219.006 11.57C219.246 12.01 219.366 12.61 219.366 13.37C219.366 14.51 219.006 15.37 218.286 15.95C217.586 16.51 216.426 16.79 214.806 16.79H209.106ZM206.256 7.58V29H216.606C217.666 29 218.596 28.83 219.396 28.49C220.216 28.13 220.896 27.67 221.436 27.11C221.996 26.53 222.416 25.87 222.696 25.13C222.976 24.39 223.116 23.63 223.116 22.85C223.116 21.53 222.766 20.41 222.066 19.49C221.366 18.57 220.356 17.97 219.036 17.69V17.63C220.056 17.23 220.836 16.62 221.376 15.8C221.936 14.96 222.216 13.97 222.216 12.83C222.216 11.75 221.966 10.84 221.466 10.1C220.986 9.36 220.396 8.78 219.696 8.36C219.376 8.16 218.986 8.01 218.526 7.91C218.086 7.81 217.606 7.74 217.086 7.7C216.566 7.64 216.036 7.61 215.496 7.61C214.976 7.59 214.486 7.58 214.026 7.58H206.256ZM209.106 26.6V19.19H215.616C216.216 19.19 216.796 19.25 217.356 19.37C217.916 19.47 218.406 19.66 218.826 19.94C219.266 20.2 219.616 20.56 219.876 21.02C220.136 21.48 220.266 22.06 220.266 22.76C220.266 23.96 219.906 24.9 219.186 25.58C218.486 26.26 217.506 26.6 216.246 26.6H209.106ZM230.483 20.15L234.113 10.16H234.173L237.743 20.15H230.483ZM232.613 7.58L224.273 29H227.183L229.583 22.55H238.643L240.983 29H244.133L235.763 7.58H232.613ZM257.136 23.66V7.58H254.286V23.24C254.286 24.42 254.036 25.36 253.536 26.06C253.056 26.76 252.166 27.11 250.866 27.11C250.166 27.11 249.586 27.01 249.126 26.81C248.686 26.59 248.336 26.29 248.076 25.91C247.836 25.53 247.666 25.08 247.566 24.56C247.466 24.04 247.416 23.47 247.416 22.85V21.95H244.566V23.27C244.566 25.31 245.106 26.86 246.186 27.92C247.266 28.96 248.806 29.48 250.806 29.48C252.006 29.48 253.006 29.32 253.806 29C254.626 28.66 255.276 28.22 255.756 27.68C256.256 27.12 256.606 26.49 256.806 25.79C257.026 25.09 257.136 24.38 257.136 23.66Z" fill="#1A1A1A"/>
<g clip-path="url(#clip0_40_131)">
<path d="M16.1405 26.4017V0.674848C16.1405 0.305077 16.4363 1.52588e-05 16.8153 1.52588e-05H39.3252C39.7042 1.52588e-05 40 0.305077 40 0.684092L39.9445 8.60644C39.9445 8.9115 39.7319 9.17959 39.4361 9.25354L24.8301 13.0807C24.2108 13.2378 24.146 14.0883 24.7192 14.3471L39.5378 21.0492C39.7781 21.1602 39.9353 21.3913 39.9353 21.6594L40 27.0488V27.0765H16.8153C16.4456 27.0765 16.1405 26.7715 16.1405 26.4017Z" fill="#1A1A1A"/>
<path d="M23.8595 35.8308V10.104C23.8595 9.73425 23.5544 9.42918 23.1847 9.42918H0.684077C0.305061 9.42918 0.00924428 9.73424 0.00924428 10.1133L0.06471 18.0356C0.06471 18.3407 0.277328 18.6088 0.573145 18.6827L15.1791 22.5098C15.7985 22.667 15.8632 23.5175 15.29 23.7763L0.462214 30.4784C0.221863 30.5893 0.06471 30.8204 0.06471 31.0885L0 36.4779V36.5057H23.1847C23.5544 36.5057 23.8595 36.2006 23.8595 35.8308Z" fill="#1A1A1A"/>
</g>
<defs>
<clipPath id="clip0_40_131">
<rect width="40" height="36.5057" fill="white"/>
</clipPath>
</defs>
</svg>
