<svg width="20" height="11" viewBox="0 0 20 11" fill="none" xmlns="http://www.w3.org/2000/svg">
<path d="M0.840332 5.06221C0.455861 5.06221 0.144185 5.37389 0.144185 5.75836C0.144185 6.14283 0.455861 6.45451 0.840332 6.45451V5.06221ZM18.9683 6.25061C19.2402 5.97875 19.2402 5.53797 18.9683 5.26611L14.5381 0.835858C14.2662 0.563996 13.8254 0.563996 13.5536 0.835858C13.2817 1.10772 13.2817 1.5485 13.5536 1.82036L17.4916 5.75836L13.5536 9.69636C13.2817 9.96823 13.2817 10.409 13.5536 10.6809C13.8254 10.9527 14.2662 10.9527 14.5381 10.6809L18.9683 6.25061ZM0.840332 6.45451H18.4761V5.06221H0.840332V6.45451Z" fill="black"/>
</svg>
